<?xml version="1.0" encoding="utf-8"?>
<!-- Generator: Adobe Illustrator 16.0.0, SVG Export Plug-In . SVG Version: 6.00 Build 0)  -->
<!DOCTYPE svg PUBLIC "-//W3C//DTD SVG 1.1//EN" "http://www.w3.org/Graphics/SVG/1.1/DTD/svg11.dtd">
<svg version="1.1" id="Shape_11_1_" xmlns="http://www.w3.org/2000/svg" xmlns:xlink="http://www.w3.org/1999/xlink" x="0px"
	 y="0px" width="48px" height="70px" viewBox="0 0 48 70" enable-background="new 0 0 48 70" xml:space="preserve">
<g id="Shape_11">
	<g>
		<path fill-rule="evenodd" clip-rule="evenodd" fill="#03488B" d="M28.514,31.345c2.498,0,4.543-2.069,4.543-4.599
			c0-2.528-2.045-4.598-4.543-4.598c-2.499,0-4.543,2.069-4.543,4.598C23.971,29.275,26.015,31.345,28.514,31.345z M28.514,24.447
			c1.249,0,2.271,1.034,2.271,2.299s-1.022,2.299-2.271,2.299c-1.25,0-2.271-1.034-2.271-2.299S27.264,24.447,28.514,24.447z
			 M47.367,26.517c0.34-0.23,0.453-0.575,0.453-0.92V7.205c0-3.794-3.066-6.897-6.814-6.897H6.935c-3.748,0-6.814,3.104-6.814,6.897
			v18.392c0,0.345,0.113,0.689,0.454,0.92c2.612,1.954,4.089,5.058,4.089,8.276s-1.477,6.322-4.089,8.276
			c-0.341,0.229-0.454,0.574-0.454,0.92v18.392c0,3.793,3.066,6.897,6.814,6.897h34.071c3.748,0,6.814-3.104,6.814-6.897V43.989
			c0-0.346-0.113-0.69-0.453-0.92c-2.613-1.954-4.09-5.058-4.09-8.276S44.754,28.471,47.367,26.517z M21.699,2.606h13.629v43.682
			c0,6.322-5.111,11.495-11.357,11.495c-0.795,0-1.477-0.115-2.271-0.23V2.606z M12.613,2.606h6.814v54.257
			c-4.089-1.839-6.814-5.978-6.814-10.575V2.606z M45.549,25.022c-2.839,2.413-4.543,5.977-4.543,9.771
			c0,3.793,1.704,7.356,4.543,9.771v17.817c0,2.529-2.043,4.598-4.543,4.598H6.935c-2.499,0-4.543-2.068-4.543-4.598V44.563
			c2.839-2.414,4.543-5.978,4.543-9.771c0-3.794-1.704-7.357-4.543-9.771V7.205c0-2.529,2.044-4.599,4.543-4.599h3.407v43.682
			c0,6.092,4.088,11.609,9.881,13.334c0.124,0,0.262-0.004,0.399-0.015c1.116,0.285,2.232,0.475,3.349,0.475
			c7.496,0,13.629-6.207,13.629-13.794V2.606h3.406c2.5,0,4.544,2.069,4.543,4.599V25.022z"/>
	</g>
</g>
</svg>
