<?xml version="1.0" encoding="utf-8"?>
<!-- Generator: Adobe Illustrator 16.0.0, SVG Export Plug-In . SVG Version: 6.00 Build 0)  -->
<!DOCTYPE svg PUBLIC "-//W3C//DTD SVG 1.1//EN" "http://www.w3.org/Graphics/SVG/1.1/DTD/svg11.dtd">
<svg version="1.1" id="Shape_8_1_" xmlns="http://www.w3.org/2000/svg" xmlns:xlink="http://www.w3.org/1999/xlink" x="0px" y="0px"
	 width="36px" height="70px" viewBox="0 0 36 70" enable-background="new 0 0 36 70" xml:space="preserve">
<g id="Shape_8">
	<g>
		<path fill-rule="evenodd" clip-rule="evenodd" fill="#03488B" d="M30.811,0.591H5.429c-2.538,0-4.615,2.068-4.615,4.597v59.759
			c0,2.528,2.077,4.597,4.615,4.597h25.382c2.537,0,4.614-2.068,4.614-4.597V5.188C35.425,2.659,33.348,0.591,30.811,0.591z
			 M3.122,59.707c0.682,0.397,1.464,0.643,2.307,0.643h25.382c0.843,0,1.625-0.245,2.307-0.643v0.643
			c0,1.264-1.038,2.299-2.307,2.299H5.429c-1.269,0-2.307-1.035-2.307-2.299V59.707z M30.811,58.051H5.429
			c-1.269,0-2.307-1.034-2.307-2.298V31.619h29.996v24.134C33.117,57.017,32.079,58.051,30.811,58.051z M5.429,2.889h25.382
			c1.269,0,2.307,1.035,2.307,2.299v24.134H3.122V5.188C3.122,3.924,4.16,2.889,5.429,2.889z M30.811,67.245H5.429
			c-1.269,0-2.307-1.034-2.307-2.299v-0.643c0.682,0.397,1.464,0.643,2.307,0.643h25.382c0.843,0,1.625-0.245,2.307-0.643v0.643
			C33.117,66.211,32.079,67.245,30.811,67.245z"/>
	</g>
</g>
</svg>
