<?xml version="1.0" encoding="utf-8"?>
<!-- Generator: Adobe Illustrator 16.0.0, SVG Export Plug-In . SVG Version: 6.00 Build 0)  -->
<!DOCTYPE svg PUBLIC "-//W3C//DTD SVG 1.1//EN" "http://www.w3.org/Graphics/SVG/1.1/DTD/svg11.dtd">
<svg version="1.1" id="Shape_4_1_" xmlns="http://www.w3.org/2000/svg" xmlns:xlink="http://www.w3.org/1999/xlink" x="0px" y="0px"
	 width="74px" height="79px" viewBox="0 0 74 79" enable-background="new 0 0 74 79" xml:space="preserve">
<g id="Shape_4">
	<g>
		<path fill-rule="evenodd" clip-rule="evenodd" fill="#03488B" d="M1.356,58.468c0.754,0,1.37-0.599,1.37-1.343
			c0-2.235,1.837-4.054,4.102-4.054c2.265,0,4.102,1.818,4.102,4.054c0,0.744,0.616,1.343,1.37,1.343c0.756,0,1.37-0.599,1.37-1.343
			c0-3.723-3.067-6.748-6.842-6.748c-3.774,0-6.841,3.025-6.841,6.748C-0.014,57.869,0.6,58.468,1.356,58.468z M1.356,50.377
			c0.754,0,1.37-0.607,1.37-1.352c0-2.233,1.837-4.054,4.102-4.054c2.265,0,4.102,1.82,4.102,4.054c0,0.744,0.616,1.352,1.37,1.352
			c0.756,0,1.37-0.607,1.37-1.352c0-3.724-3.067-6.748-6.842-6.748c-3.774,0-6.841,3.024-6.841,6.748
			C-0.014,49.77,0.6,50.377,1.356,50.377z M1.356,42.277c0.754,0,1.37-0.607,1.37-1.352c0-2.233,1.837-4.046,4.102-4.046
			c2.265,0,4.102,1.813,4.102,4.046c0,0.744,0.616,1.352,1.37,1.352c0.756,0,1.37-0.607,1.37-1.352c0-3.724-3.067-6.748-6.842-6.748
			c-3.774,0-6.841,3.024-6.841,6.748C-0.014,41.67,0.6,42.277,1.356,42.277z M1.356,34.178c0.754,0,1.37-0.606,1.37-1.352
			c0-2.233,1.837-4.046,4.102-4.046c2.265,0,4.102,1.813,4.102,4.046c0,0.745,0.616,1.352,1.37,1.352c0.756,0,1.37-0.606,1.37-1.352
			c0-3.717-3.067-6.749-6.842-6.749c-3.774,0-6.841,3.032-6.841,6.749C-0.014,33.571,0.6,34.178,1.356,34.178z M2.726,24.727
			c0-2.228,1.837-4.046,4.102-4.046c2.265,0,4.102,1.818,4.102,4.046c0,0.752,0.616,1.351,1.37,1.351c0.756,0,1.37-0.599,1.37-1.351
			c0-3.717-3.067-6.749-6.842-6.749c-3.774,0-6.841,3.032-6.841,6.749c0,0.752,0.614,1.351,1.37,1.351
			C2.11,26.077,2.726,25.479,2.726,24.727z M68.408,0.442H23.25V0.436H5.458v9.583c-3.12,0.633-5.472,3.354-5.472,6.616
			c0,0.744,0.614,1.343,1.37,1.343c0.754,0,1.37-0.599,1.37-1.343c0-2.235,1.837-4.054,4.102-4.054c2.265,0,4.102,1.818,4.102,4.054
			c0,0.744,0.616,1.343,1.37,1.343c0.756,0,1.37-0.599,1.37-1.343c0-3.263-2.352-5.983-5.472-6.616v-6.88H20.51v72.88H8.197v-9.45
			c0-0.744-0.616-1.352-1.37-1.352c-0.754,0-1.37,0.607-1.37,1.352v2.451c-1.589-0.561-2.732-2.043-2.732-3.803
			c0-2.228,1.837-4.046,4.102-4.046c2.265,0,4.102,1.818,4.102,4.046c0,0.752,0.616,1.352,1.37,1.352c0.756,0,1.37-0.6,1.37-1.352
			c0-3.717-3.067-6.749-6.842-6.749c-3.774,0-6.841,3.032-6.841,6.749c0,3.263,2.352,5.984,5.472,6.616v6.88h62.951
			c3.014,0,5.465-2.417,5.465-5.39V5.833C73.873,2.859,71.422,0.442,68.408,0.442z M56.089,76.019H23.25V3.139h32.838V76.019z
			 M62.93,76.019H58.82V3.139h4.109V76.019z M71.143,73.323c0,1.482-1.23,2.695-2.734,2.695h-2.746V3.139h2.746
			c1.504,0,2.734,1.211,2.734,2.694V73.323z"/>
	</g>
</g>
</svg>
