<?xml version="1.0" encoding="utf-8"?>
<!-- Generator: Adobe Illustrator 16.0.0, SVG Export Plug-In . SVG Version: 6.00 Build 0)  -->
<!DOCTYPE svg PUBLIC "-//W3C//DTD SVG 1.1//EN" "http://www.w3.org/Graphics/SVG/1.1/DTD/svg11.dtd">
<svg version="1.1" id="Shape_7_1_" xmlns="http://www.w3.org/2000/svg" xmlns:xlink="http://www.w3.org/1999/xlink" x="0px" y="0px"
	 width="24px" height="82px" viewBox="0 0 24 82" enable-background="new 0 0 24 82" xml:space="preserve">
<g id="Shape_7">
	<g>
		<path fill-rule="evenodd" clip-rule="evenodd" fill="#03488B" d="M23.23,9.214C23.214,6.734,22.22,4.41,20.432,2.67
			c-1.789-1.741-4.156-2.691-6.668-2.674L8.718,0.03c-0.001,0-0.001,0-0.001,0C6.629,0.045,4.673,0.86,3.208,2.326
			c-1.466,1.468-2.265,3.41-2.251,5.471l0.177,25.467l0.237,34.139v0.004c0,0.042,0.003,0.084,0.007,0.126
			c0,0.007,0,0.013,0.001,0.02c0.005,0.04,0.012,0.08,0.02,0.12c0.001,0.008,0.002,0.016,0.004,0.023
			c0.007,0.034,0.017,0.069,0.027,0.104c0.003,0.013,0.006,0.026,0.011,0.039c0.009,0.027,0.02,0.054,0.03,0.081
			c0.008,0.019,0.015,0.039,0.023,0.059c0.009,0.021,0.02,0.041,0.03,0.063c0.012,0.023,0.023,0.048,0.037,0.071
			c0.003,0.005,0.005,0.01,0.007,0.014l6.2,10.723l0.011,1.664c0.006,0.815,0.681,1.473,1.507,1.468
			c0.414-0.003,0.787-0.171,1.056-0.44c0.269-0.27,0.434-0.64,0.431-1.048l-0.012-1.664l6.05-10.805
			c0.002-0.003,0.002-0.005,0.004-0.007c0.019-0.034,0.035-0.069,0.051-0.104c0.005-0.01,0.01-0.019,0.014-0.028
			c0.014-0.033,0.026-0.066,0.037-0.1c0.006-0.014,0.011-0.027,0.016-0.04c0.007-0.024,0.012-0.049,0.019-0.072
			c0.007-0.024,0.013-0.048,0.019-0.072c0.002-0.014,0.004-0.028,0.006-0.043c0.006-0.034,0.012-0.069,0.016-0.104
			c0.001-0.011,0.001-0.022,0.002-0.033c0.003-0.038,0.005-0.076,0.005-0.114c0-0.003,0.001-0.005,0.001-0.008l-0.238-34.138v-0.003
			L16.586,7.69c-0.013-1.744-0.614-3.351-1.617-4.639c1.263,0.224,2.427,0.813,3.359,1.722c1.219,1.187,1.896,2.771,1.908,4.461
			l0.15,21.707c0.006,0.816,0.682,1.474,1.508,1.468c0.414-0.002,0.787-0.17,1.056-0.439c0.27-0.27,0.435-0.64,0.432-1.048
			L23.23,9.214z M3.952,7.776C3.942,6.505,4.436,5.307,5.34,4.402c0.904-0.904,2.11-1.407,3.396-1.417c0,0,0.001,0,0.001,0h0.007
			c2.655-0.015,4.83,2.104,4.847,4.726L13.758,31.7l-9.64,0.065L3.952,7.776z M9.242,75.434l-3.805-6.581l7.519-0.051L9.242,75.434z
			 M4.355,65.904L4.139,34.722l9.641-0.065l0.216,31.183L4.355,65.904z"/>
	</g>
</g>
</svg>
