<?xml version="1.0" encoding="utf-8"?>
<!-- Generator: Adobe Illustrator 16.0.0, SVG Export Plug-In . SVG Version: 6.00 Build 0)  -->
<!DOCTYPE svg PUBLIC "-//W3C//DTD SVG 1.1//EN" "http://www.w3.org/Graphics/SVG/1.1/DTD/svg11.dtd">
<svg version="1.1" id="Shape_5_1_" xmlns="http://www.w3.org/2000/svg" xmlns:xlink="http://www.w3.org/1999/xlink" x="0px" y="0px"
	 width="15px" height="74px" viewBox="0 0 15 74" enable-background="new 0 0 15 74" xml:space="preserve">
<g id="Shape_5">
	<g>
		<path fill-rule="evenodd" clip-rule="evenodd" fill="#03488B" d="M11.573,0.387L4.071,0.319C3.15,0.312,2.281,0.657,1.624,1.294
			S0.6,2.782,0.591,3.691l-0.059,6.466v0.001L0.055,62.279v0.007c0,0.035,0.002,0.07,0.005,0.105c0,0.01,0,0.021,0.001,0.03
			c0.003,0.032,0.008,0.064,0.014,0.097c0.002,0.013,0.004,0.026,0.006,0.039c0.004,0.021,0.011,0.044,0.017,0.066
			c0.006,0.021,0.01,0.044,0.017,0.065c0.004,0.013,0.009,0.025,0.014,0.038c0.01,0.031,0.021,0.062,0.033,0.09
			c0.004,0.011,0.01,0.02,0.014,0.03c0.015,0.031,0.029,0.063,0.046,0.093c0.001,0.002,0.002,0.004,0.003,0.007l4.166,7.474
			l1.561,2.801c0.24,0.431,0.698,0.7,1.196,0.705c0.046,0,0.093-0.002,0.138-0.006c0.319-0.028,0.616-0.166,0.841-0.385
			c0.088-0.086,0.166-0.185,0.229-0.294l5.913-10.17c0.003-0.004,0.005-0.009,0.007-0.013c0.013-0.021,0.022-0.043,0.034-0.065
			c0.01-0.02,0.02-0.038,0.028-0.058c0.008-0.019,0.015-0.037,0.021-0.056c0.009-0.024,0.019-0.049,0.027-0.072
			c0.005-0.014,0.007-0.028,0.011-0.042c0.01-0.029,0.018-0.059,0.023-0.089c0.003-0.011,0.004-0.021,0.006-0.032
			c0.007-0.033,0.013-0.066,0.016-0.1c0.002-0.011,0.002-0.022,0.003-0.034c0.003-0.032,0.005-0.065,0.006-0.098
			c0-0.002,0.001-0.004,0.001-0.007l0.478-52.121l0.06-6.467C15.008,1.943,13.475,0.403,11.573,0.387z M3.279,11.543L6.34,11.57
			L5.887,60.97l-3.062-0.027L3.279,11.543z M7.978,68.425l-1.559-0.014l-2.641-4.738l6.927,0.063L7.978,68.425z M11.707,61.022
			l-3.062-0.028l0.453-49.399l3.062,0.027L11.707,61.022z M12.185,8.9l-4.44-0.04H7.744l-4.44-0.039L3.35,3.716
			c0.002-0.245,0.13-0.405,0.207-0.479c0.076-0.073,0.241-0.197,0.489-0.194l7.502,0.066c0.38,0.003,0.687,0.312,0.684,0.687
			L12.185,8.9z"/>
	</g>
</g>
</svg>
