<?xml version="1.0" encoding="utf-8"?>
<!-- Generator: Adobe Illustrator 16.0.0, SVG Export Plug-In . SVG Version: 6.00 Build 0)  -->
<!DOCTYPE svg PUBLIC "-//W3C//DTD SVG 1.1//EN" "http://www.w3.org/Graphics/SVG/1.1/DTD/svg11.dtd">
<svg version="1.1" id="Shape_6_1_" xmlns="http://www.w3.org/2000/svg" xmlns:xlink="http://www.w3.org/1999/xlink" x="0px" y="0px"
	 width="24px" height="83px" viewBox="0 0 24 83" enable-background="new 0 0 24 83" xml:space="preserve">
<g id="Shape_6">
	<g>
		<path fill-rule="evenodd" clip-rule="evenodd" fill="#03488B" d="M22.621,2.152c-0.004-0.382-0.162-0.746-0.441-1.014
			s-0.654-0.415-1.045-0.411L1.52,0.912C0.707,0.92,0.054,1.57,0.062,2.366l0.782,78.925c0.008,0.795,0.674,1.434,1.487,1.426
			l19.615-0.186c0.406-0.004,0.773-0.169,1.037-0.432s0.425-0.624,0.421-1.021L22.621,2.152z M3.774,79.824l-0.083-8.377L6.8,71.418
			c0.407-0.004,0.773-0.169,1.037-0.432c0.264-0.263,0.425-0.624,0.421-1.021C8.25,69.17,7.585,68.532,6.771,68.54l-3.109,0.029
			L3.58,60.192l5.83-0.055c0.407-0.004,0.773-0.169,1.037-0.432c0.264-0.263,0.425-0.624,0.421-1.021
			c-0.008-0.795-0.673-1.434-1.487-1.426l-5.829,0.056l-0.083-8.377l3.109-0.029c0.407-0.004,0.773-0.169,1.037-0.432
			c0.264-0.263,0.425-0.624,0.421-1.021c-0.008-0.795-0.673-1.433-1.487-1.426l-3.109,0.029l-0.083-8.376l7.691-0.073
			c0.407-0.004,0.773-0.168,1.037-0.431c0.264-0.264,0.426-0.625,0.422-1.022c-0.008-0.795-0.674-1.433-1.487-1.425l-7.691,0.072
			l-0.083-8.377l3.109-0.029c0.407-0.004,0.773-0.168,1.037-0.432c0.264-0.263,0.425-0.624,0.421-1.021
			c-0.008-0.795-0.673-1.433-1.487-1.425l-3.109,0.029l-0.083-8.377l7.69-0.072c0.407-0.004,0.773-0.169,1.037-0.432
			c0.264-0.263,0.424-0.624,0.421-1.021c-0.009-0.795-0.674-1.433-1.487-1.426l-7.691,0.073L3.021,3.776l16.67-0.157l0.753,76.048
			L3.774,79.824z"/>
	</g>
</g>
</svg>
