<?xml version="1.0" encoding="utf-8"?>
<!-- Generator: Adobe Illustrator 16.0.0, SVG Export Plug-In . SVG Version: 6.00 Build 0)  -->
<!DOCTYPE svg PUBLIC "-//W3C//DTD SVG 1.1//EN" "http://www.w3.org/Graphics/SVG/1.1/DTD/svg11.dtd">
<svg version="1.1" id="Shape_9_1_" xmlns="http://www.w3.org/2000/svg" xmlns:xlink="http://www.w3.org/1999/xlink" x="0px" y="0px"
	 width="71px" height="78px" viewBox="0 0 71 78" enable-background="new 0 0 71 78" xml:space="preserve">
<g id="Shape_9">
	<g>
		<path fill-rule="evenodd" clip-rule="evenodd" fill="#03488B" d="M69.654,5.618c-1.701-2.954-4.848-4.777-8.248-4.777
			c-3.322,0-6.393,1.75-8.118,4.585c-0.048,0.062-0.091,0.126-0.128,0.192l-9.837,17.094l-7.518,3.729l-7.517-3.729l-3.8-6.604
			L18.452,5.619c-1.7-2.955-4.847-4.778-8.247-4.778h0c-1.7,0-3.336,0.456-4.761,1.281s-2.637,2.02-3.486,3.496
			c-1.7,2.954-1.7,6.602,0,9.556l6.036,10.489c1.7,2.954,4.847,4.777,8.247,4.777c3.399,0,6.546-1.823,8.247-4.778
			c0.385-0.669,0.671-1.377,0.882-2.102l0.493,0.856c0.046,0.108,0.105,0.212,0.176,0.306l3.418,5.94L9.975,64.518
			c-0.195,0.34-0.248,0.744-0.146,1.123l2.945,11.03c0.34,1.273,2.045,1.499,2.703,0.356l20.329-35.329l20.329,35.329
			c0.657,1.143,2.362,0.917,2.702-0.356l2.946-11.03c0.101-0.38,0.048-0.783-0.147-1.123l-19.48-33.854l3.42-5.943
			c0.071-0.095,0.131-0.198,0.177-0.308l6.521-11.332c0.21,0.722,0.503,1.426,0.888,2.093c0.85,1.478,2.062,2.672,3.485,3.497
			c1.425,0.825,3.062,1.281,4.761,1.281c3.4,0,6.547-1.823,8.248-4.778C71.354,12.219,71.354,8.572,69.654,5.618z M21.932,24.183
			c-1.175,2.042-3.341,3.297-5.691,3.297s-4.517-1.254-5.692-3.297L4.513,13.693c-1.175-2.042-1.175-4.553,0-6.595
			C5.1,6.077,5.936,5.254,6.917,4.685C7.9,4.115,9.028,3.801,10.204,3.801h0.001c2.35,0.001,4.517,1.256,5.691,3.298l6.036,10.489
			C23.107,19.631,23.106,22.14,21.932,24.183z M14.702,72.452l-1.865-6.986l18.322-31.843l2.943,5.113L14.702,72.452z
			 M32.854,31.613c0-1.635,1.321-2.961,2.951-2.961s2.951,1.326,2.951,2.961s-1.321,2.96-2.951,2.96S32.854,33.248,32.854,31.613z
			 M58.775,65.466l-1.866,6.987l-19.4-33.716l2.942-5.114L58.775,65.466z M67.098,13.693c-1.175,2.042-3.342,3.297-5.691,3.297
			c-1.176,0-2.305-0.313-3.287-0.883c-0.982-0.568-1.816-1.393-2.404-2.414c-1.176-2.042-1.175-4.552,0-6.594V7.099
			c1.176-2.043,3.341-3.298,5.691-3.298c2.35,0,4.516,1.255,5.691,3.298C68.273,9.141,68.273,11.65,67.098,13.693z"/>
	</g>
</g>
</svg>
